HIERARCHY
ROOT root
{
	OFFSET 0.000000 0.000000 0.000000
	CHANNELS 6 Xposition Yposition Zposition Zrotation Yrotation Xrotation
	JOINT lhip
	{
		OFFSET 0.058581 -0.082280 -0.017664
		CHANNELS 3 Zrotation Yrotation Xrotation
		JOINT lknee
		{
			OFFSET 0.043451 -0.386469 0.008037
			CHANNELS 3 Zrotation Yrotation Xrotation
			JOINT lankle
			{
				OFFSET -0.014790 -0.426874 -0.037428
				CHANNELS 3 Zrotation Yrotation Xrotation
				JOINT ltoe
				{
					OFFSET 0.041054 -0.060286 0.122042
					CHANNELS 3 Zrotation Yrotation Xrotation
					End Site
					{
						OFFSET 0.000000 0.000000 0.000000
					}
				}
			}
		}
	}
	JOINT rhip
	{
		OFFSET -0.060310 -0.090513 -0.013543
		CHANNELS 3 Zrotation Yrotation Xrotation
		JOINT rknee
		{
			OFFSET -0.043257 -0.383688 -0.004843
			CHANNELS 3 Zrotation Yrotation Xrotation
			JOINT rankle
			{
				OFFSET 0.019056 -0.420046 -0.034562
				CHANNELS 3 Zrotation Yrotation Xrotation
				JOINT rtoe
				{
					OFFSET -0.034840 -0.062106 0.130323
					CHANNELS 3 Zrotation Yrotation Xrotation
					End Site
					{
						OFFSET 0.000000 0.000000 0.000000
					}
				}
			}
		}
	}
	JOINT lowerback
	{
		OFFSET 0.004439 0.124404 -0.038385
		CHANNELS 3 Zrotation Yrotation Xrotation
		JOINT upperback
		{
			OFFSET 0.004488 0.137956 0.026820
			CHANNELS 3 Zrotation Yrotation Xrotation
			JOINT chest
			{
				OFFSET -0.002265 0.056032 0.002855
				CHANNELS 3 Zrotation Yrotation Xrotation
				JOINT lowerneck
				{
					OFFSET -0.013390 0.211636 -0.033468
					CHANNELS 3 Zrotation Yrotation Xrotation
					JOINT upperneck
					{
						OFFSET 0.010113 0.088937 0.050410
						CHANNELS 3 Zrotation Yrotation Xrotation
						End Site
						{
							OFFSET 0.000000 0.000000 0.000000
						}
					}
				}
				JOINT lclavicle
				{
					OFFSET 0.071702 0.114000 -0.018898
					CHANNELS 3 Zrotation Yrotation Xrotation
					JOINT lshoulder
					{
						OFFSET 0.122921 0.045205 -0.019046
						CHANNELS 3 Zrotation Yrotation Xrotation
						JOINT lelbow
						{
							OFFSET 0.255332 -0.015649 -0.022946
							CHANNELS 3 Zrotation Yrotation Xrotation
							JOINT lwrist
							{
								OFFSET 0.265709 0.012698 -0.007375
								CHANNELS 3 Zrotation Yrotation Xrotation
								End Site
								{
									OFFSET 0.000000 0.000000 0.000000
								}
							}
						}
					}
				}
				JOINT rclavicle
				{
					OFFSET -0.082954 0.112472 -0.023707
					CHANNELS 3 Zrotation Yrotation Xrotation
					JOINT rshoulder
					{
						OFFSET -0.113228 0.046853 -0.008472
						CHANNELS 3 Zrotation Yrotation Xrotation
						JOINT relbow
						{
							OFFSET -0.260127 -0.014369 -0.031269
							CHANNELS 3 Zrotation Yrotation Xrotation
							JOINT rwrist
							{
								OFFSET -0.269108 0.006794 -0.006027
								CHANNELS 3 Zrotation Yrotation Xrotation
								End Site
								{
									OFFSET 0.000000 0.000000 0.000000
								}
							}
						}
					}
				}
			}
		}
	}
}
MOTION
Frames: 7
Frame Time: 0.033333
-0.044583 0.265734 1.304591 94.253199 0.866079 90.593362 5.626560 2.771590 -15.801274 -4.916975 6.053016 1.272059 -13.683934 6.396181 26.281413 0.000000 -0.000000 0.000000 -3.229651 -4.389261 -22.341354 1.515491 -14.107794 19.051323 13.372138 -3.862471 25.730407 0.000000 -0.000000 0.000000 -3.129254 1.538767 19.412822 4.103203 -4.535300 3.260210 3.160430 -1.698810 -0.527998 -2.621633 2.122214 10.692837 5.029168 -3.354657 2.776905 -16.924553 0.753756 8.827829 -53.010747 -2.427535 2.024705 2.746140 -14.281277 -2.986215 -8.575791 -11.559415 -12.383178 21.399337 0.677513 7.077844 56.360241 4.220146 11.224919 -10.750973 26.224293 5.041411 6.617484 1.283815 0.562558 
-0.002669 0.266160 1.268644 94.221896 0.768498 90.236439 5.678277 2.448539 -18.225345 -4.922558 7.073484 0.790108 -13.939600 5.315723 23.826363 0.000000 -0.000000 0.000000 -3.532954 -4.923107 -22.896129 2.166523 -14.402299 11.305039 13.356094 -4.888877 25.585807 0.000000 -0.000000 0.000000 -2.604554 2.007339 20.912211 3.765502 -4.628030 2.514495 3.201808 -1.675947 -0.317701 -2.852338 2.006973 10.306164 5.619378 -3.478817 2.956527 -16.407505 0.913151 9.125134 -52.560331 -1.985647 1.595846 2.295954 -13.578575 -2.727204 -8.474744 -11.935315 -12.039018 20.783933 0.578818 7.501187 57.077033 3.667686 11.258825 -10.973295 26.809484 4.696600 6.072703 1.411723 0.057455 
0.040096 0.266474 1.221284 93.881065 0.618160 89.252711 6.189075 2.042840 -19.915618 -5.048138 7.606540 0.894138 -14.977863 5.161819 25.099719 0.000000 -0.000000 0.000000 -4.161399 -5.572225 -23.539141 2.728598 -15.418159 7.250995 14.464782 -5.051867 28.203515 0.000000 -0.000000 0.000000 -2.189873 2.489052 22.528494 3.408675 -4.523961 2.708798 3.091568 -1.549818 -0.322400 -2.929925 2.022623 9.917598 6.163101 -3.720271 2.782430 -15.929145 1.177806 9.160947 -52.528385 -1.599822 1.261267 2.138604 -13.474739 -3.211820 -8.276963 -12.081449 -12.720842 20.156526 0.463156 7.790375 58.329640 3.337257 11.338720 -11.852324 28.007871 3.527506 5.437787 1.574898 -0.820721 
0.086443 0.266940 1.162673 92.989192 0.617727 87.778480 6.662552 2.744446 -20.728255 -5.052437 7.832248 2.240891 -15.503061 5.800915 27.773762 0.000000 -0.000000 0.000000 -4.588709 -6.123508 -24.442635 2.594495 -15.787327 8.924506 15.232829 -4.327510 30.817307 0.000000 -0.000000 0.000000 -1.936446 2.630298 23.288777 3.089718 -4.123278 3.403016 2.830278 -1.328706 -0.436115 -3.129543 1.873370 10.794604 6.590444 -3.560502 2.697415 -16.044932 1.432441 9.271604 -52.756243 -0.890956 0.746281 2.287300 -13.334636 -3.509366 -7.712618 -11.823200 -12.796594 19.758654 0.350131 8.218337 59.295413 3.173769 11.009271 -11.999904 29.300898 3.542756 5.046612 1.731443 -1.187998 
0.137517 0.267127 1.093810 91.825532 0.414514 85.627873 6.836735 3.094932 -20.945434 -4.770364 8.018955 8.438119 -15.329075 6.255090 28.006623 0.000000 -0.000000 0.000000 -4.810845 -6.140822 -25.285868 1.313015 -13.468874 17.296535 14.916475 -2.725713 29.928117 0.000000 -0.000000 0.000000 -2.239978 2.938524 23.275270 3.042992 -3.652886 3.788079 2.519544 -1.130575 -0.491025 -3.069113 1.520068 12.624179 6.575447 -3.080905 3.081621 -16.896027 1.912289 9.076815 -52.651980 -0.144435 0.126697 2.478904 -13.262618 -3.622496 -7.422286 -10.948185 -12.555586 20.319177 -0.073315 8.384908 59.170680 2.959825 10.366178 -11.584933 29.735049 4.096762 4.941362 1.740082 -0.962900 
0.192927 0.266872 1.015360 91.232161 0.351011 82.632015 6.787485 2.516592 -20.885873 -6.266390 3.398994 21.182944 -10.303950 4.081328 15.107437 0.000000 -0.000000 0.000000 -5.027910 -4.159376 -24.139154 3.326707 -6.295712 29.623155 9.174315 1.162525 7.017899 0.000000 -0.000000 0.000000 -2.402454 3.203512 23.327322 3.413255 -3.230507 2.860204 1.931463 -0.982907 -0.013430 -1.169488 2.308493 12.776719 5.440857 -4.497227 4.875330 -17.516905 2.048014 8.324090 -52.657845 0.499620 -0.219530 2.413035 -13.648448 -1.985924 -5.792131 -9.722857 -14.730609 21.558651 -0.120545 8.230221 58.210476 2.120575 8.742996 -11.343923 29.191397 5.488184 5.067455 1.502999 -1.321134 
0.239608 0.270555 0.940474 91.699152 1.085072 79.478386 6.773112 1.204223 -23.491937 -9.401940 -0.221548 39.090092 1.701179 7.967987 -8.281297 0.000000 -0.000000 0.000000 -4.707908 -1.260419 -26.153243 5.502861 -3.964657 45.828172 2.458431 -3.848307 -11.168344 0.000000 -0.000000 0.000000 -1.626008 2.025345 25.635673 3.736755 -1.568616 -1.384280 1.262178 -1.251873 4.150503 1.161710 2.081679 5.450047 2.611936 -6.129408 10.993164 -18.993858 3.349274 6.197404 -52.059275 -3.524980 3.413072 2.047189 -13.991087 -0.804584 2.398935 -5.905644 -19.859505 23.620181 -0.723038 5.015502 56.157832 4.040893 11.490012 -12.819598 24.874729 3.871569 3.119893 2.787860 -1.641805 
